<svg xmlns="http://www.w3.org/2000/svg" xmlns:xlink="http://www.w3.org/1999/xlink" width="283.216" height="283.216" viewBox="0 0 283.216 283.216"><defs><linearGradient id="a"><stop offset="0" stop-color="#32b8c9"/><stop offset="1" stop-color="#d9dadb"/></linearGradient><linearGradient xlink:href="#a" id="f" x1="195" y1="256" x2="250" y2="256" gradientUnits="userSpaceOnUse" gradientTransform="translate(40.635 40.635) scale(.84127)"/><linearGradient xlink:href="#a" id="d" x1="349.68" y1="702.969" x2="557.101" y2="702.969" gradientUnits="userSpaceOnUse"/><linearGradient xlink:href="#a" id="c" x1="731.774" y1="-41.163" x2="939.195" y2="-41.163" gradientUnits="userSpaceOnUse"/><linearGradient xlink:href="#a" id="b" x1="278.383" y1="-744.132" x2="485.805" y2="-744.132" gradientUnits="userSpaceOnUse"/><linearGradient xlink:href="#a" id="e" x1="56" y1="970.362" x2="347.429" y2="970.362" gradientUnits="userSpaceOnUse" gradientTransform="translate(-403.429 -1940.724)"/></defs><g transform="translate(-114.392 -654.754)"><rect width="205.422" height="205.422" x="279.383" y="-846.843" rx="11.223" ry="11.223" transform="rotate(135)" fill="none" stroke="url(#b)" stroke-width="2"/><rect style="isolation:auto;mix-blend-mode:normal" width="205.422" height="205.422" x="732.774" y="-143.874" rx="11.223" ry="11.223" transform="rotate(75)" color="#000" overflow="visible" fill="none" stroke="url(#c)" stroke-width="2"/><rect style="isolation:auto;mix-blend-mode:normal" width="205.422" height="205.422" x="350.68" y="600.258" rx="11.223" ry="11.223" transform="rotate(15)" color="#000" overflow="visible" fill="none" stroke="url(#d)" stroke-width="2" stroke-miterlimit="0"/><rect style="isolation:auto;mix-blend-mode:normal" width="400" height="4" x="56" y="968.362" ry="4" rx="4" color="#000" overflow="visible" opacity=".25" fill="#fff"/><rect style="isolation:auto;mix-blend-mode:normal" width="291.429" height="2.914" x="-347.429" y="-971.819" ry="2.914" rx="2.914" transform="scale(-1)" color="#000" overflow="visible" fill="url(#e)"/></g><path style="isolation:auto;mix-blend-mode:normal" d="M212.313 312.365a3.424 3.424 0 0 1-3.424 3.424 3.424 3.424 0 0 1-3.424-3.424 3.424 3.424 0 0 1 3.424-3.424 3.424 3.424 0 0 1 3.424 3.424zm0-112.73a3.424 3.424 0 0 1-3.424 3.424 3.424 3.424 0 0 1-3.424-3.424 3.424 3.424 0 0 1 3.424-3.424 3.424 3.424 0 0 1 3.424 3.424zM250.17 256a3.424 3.424 0 0 1-3.424 3.424 3.424 3.424 0 0 1-3.424-3.424 3.424 3.424 0 0 1 3.424-3.424A3.424 3.424 0 0 1 250.17 256zm-41.281 0h35.333m-35.333-53.841V309.84m97.646 2.524a3.424 3.424 0 0 1-3.424 3.424 3.424 3.424 0 0 1-3.424-3.424 3.424 3.424 0 0 1 3.424-3.424 3.424 3.424 0 0 1 3.424 3.424zm0-112.73a3.424 3.424 0 0 1-3.424 3.424 3.424 3.424 0 0 1-3.424-3.424 3.424 3.424 0 0 1 3.424-3.424 3.424 3.424 0 0 1 3.424 3.424zM268.678 256a3.424 3.424 0 0 1-3.424 3.424A3.424 3.424 0 0 1 261.83 256a3.424 3.424 0 0 1 3.424-3.424 3.424 3.424 0 0 1 3.424 3.424zm-.9 0h35.333m0-53.841V309.84" color="#000" overflow="visible" fill="none" stroke="url(#f)" stroke-width="1.565" transform="translate(-114.392 -114.392)"/></svg>