<svg xmlns="http://www.w3.org/2000/svg" width="272.033" height="170.558" viewBox="0 0 255.031 159.898"><path style="isolation:auto;mix-blend-mode:normal;solid-color:#000;solid-opacity:1" d="M128.179 1.394A78.555 78.555 0 0 0 75.843 21.48h-57.51a3.408 3.408 0 0 0-3.416 3.415 3.408 3.408 0 0 0 3.416 3.415h50.78a78.555 78.555 0 0 0-12.95 20.493H27.77a6.83 6.83 0 0 0-5.897-3.394 6.83 6.83 0 1 0 0 13.662 6.832 6.832 0 0 0 5.919-3.437h25.792a78.554 78.554 0 0 0-3.83 20.628H5.68c-2.375 0-4.285 1.463-4.285 3.28 0 1.816 1.91 3.28 4.285 3.28h44.089a78.554 78.554 0 0 0 2.724 17.84H27.557a6.83 6.83 0 0 0-5.684-3.048 6.83 6.83 0 1 0 6.114 9.878h26.725a78.556 78.556 0 0 0 6.7 13.662H45.656a3.408 3.408 0 0 0-3.415 3.415 3.408 3.408 0 0 0 3.415 3.416h20.487a78.555 78.555 0 0 0 62.036 30.52 78.555 78.555 0 0 0 62.102-30.52h19.094a3.408 3.408 0 0 0 3.416-3.416 3.408 3.408 0 0 0-3.416-3.415H194.99a78.555 78.555 0 0 0 6.711-13.662h25.344a6.83 6.83 0 1 0 6.113-9.878 6.83 6.83 0 0 0-5.684 3.047h-23.537a78.555 78.555 0 0 0 2.695-17.84h42.72c2.375 0 4.285-1.463 4.285-3.28 0-1.816-1.91-3.279-4.285-3.279h-42.803a78.554 78.554 0 0 0-3.727-20.628h24.417a6.83 6.83 0 0 0 5.919 3.437 6.83 6.83 0 0 0 0-13.662 6.832 6.832 0 0 0-5.897 3.394h-26.995a78.555 78.555 0 0 0-12.968-20.493h49.4a3.408 3.408 0 0 0 3.416-3.415 3.408 3.408 0 0 0-3.415-3.415h-56.203A78.555 78.555 0 0 0 128.18 1.394zm0 7.247c39.382 0 71.31 31.925 71.31 71.308 0 39.384-31.926 71.31-71.31 71.31-39.384.001-71.311-31.926-71.31-71.31 0-39.383 31.927-71.308 71.31-71.308zm34.437 20.861v40.452h-70.2v-40.39a61.478 61.478 0 0 0-17.598 18.864v63.052a61.478 61.478 0 0 0 17.597 18.913v-45.7h70.2v45.639a61.478 61.478 0 0 0 17.596-18.86V48.41a61.478 61.478 0 0 0-17.595-18.908z" color="#000" overflow="visible" fill="none" stroke="#006ab3" stroke-width="2.788"/></svg>