<?xml version="1.0" encoding="UTF-8"?><svg xmlns="http://www.w3.org/2000/svg" xmlns:xlink="http://www.w3.org/1999/xlink" fill-opacity="1" color-rendering="auto" color-interpolation="auto" text-rendering="auto" stroke="black" stroke-linecap="square" width="415" stroke-miterlimit="10" shape-rendering="auto" stroke-opacity="1" fill="black" stroke-dasharray="none" font-weight="normal" stroke-width="1" height="328" font-family="'Dialog'" font-style="normal" stroke-linejoin="miter" font-size="12px" stroke-dashoffset="0" image-rendering="auto">
  <!--Generated by ySVG 2.5-->
  <defs id="genericDefs"/>
  <g>
    <defs id="defs1">
      <clipPath clipPathUnits="userSpaceOnUse" id="clipPath1">
        <path d="M0 0 L415 0 L415 328 L0 328 L0 0 Z"/>
      </clipPath>
      <clipPath clipPathUnits="userSpaceOnUse" id="clipPath2">
        <path d="M382 261 L797 261 L797 589 L382 589 L382 261 Z"/>
      </clipPath>
    </defs>
    <g fill="white" text-rendering="geometricPrecision" shape-rendering="geometricPrecision" transform="matrix(1,0,0,1,-382,-261)" stroke="white">
      <rect x="397.5661" y="298.5" clip-path="url(#clipPath2)" width="100" rx="4" ry="4" height="245" stroke="none"/>
    </g>
    <g text-rendering="geometricPrecision" stroke-miterlimit="1.45" shape-rendering="geometricPrecision" transform="matrix(1,0,0,1,-382,-261)" stroke-linecap="butt">
      <rect x="397.5661" y="298.5" clip-path="url(#clipPath2)" fill="none" width="100" rx="4" ry="4" height="245"/>
      <text x="403.1521" xml:space="preserve" y="289.9688" clip-path="url(#clipPath2)" font-family="sans-serif" stroke="none">Virtual Memory</text>
      <rect x="681.5258" y="442.3746" clip-path="url(#clipPath2)" fill="none" width="100" rx="4" ry="4" height="131.1254"/>
      <text x="683.1508" xml:space="preserve" y="433.8434" clip-path="url(#clipPath2)" font-family="sans-serif" stroke="none">Physical Memory</text>
    </g>
    <g fill="white" text-rendering="geometricPrecision" shape-rendering="geometricPrecision" transform="matrix(1,0,0,1,-382,-261)" stroke="white">
      <rect x="422.5661" y="313.5" clip-path="url(#clipPath2)" width="100" rx="4" ry="4" height="245" stroke="none"/>
    </g>
    <g text-rendering="geometricPrecision" stroke-miterlimit="1.45" shape-rendering="geometricPrecision" transform="matrix(1,0,0,1,-382,-261)" stroke-linecap="butt">
      <rect x="422.5661" y="313.5" clip-path="url(#clipPath2)" fill="none" width="100" rx="4" ry="4" height="245"/>
    </g>
    <g fill="white" text-rendering="geometricPrecision" shape-rendering="geometricPrecision" transform="matrix(1,0,0,1,-382,-261)" stroke="white">
      <rect x="447.5661" y="328.5" clip-path="url(#clipPath2)" width="100" rx="4" ry="4" height="245" stroke="none"/>
    </g>
    <g text-rendering="geometricPrecision" stroke-miterlimit="1.45" shape-rendering="geometricPrecision" transform="matrix(1,0,0,1,-382,-261)" stroke-linecap="butt">
      <rect x="447.5661" y="328.5" clip-path="url(#clipPath2)" fill="none" width="100" rx="4" ry="4" height="245"/>
    </g>
    <g fill="silver" text-rendering="geometricPrecision" shape-rendering="geometricPrecision" transform="matrix(1,0,0,1,-382,-261)" stroke="silver">
      <rect x="447.5661" width="100" height="20.0648" y="543.5" clip-path="url(#clipPath2)" stroke="none"/>
    </g>
    <g text-rendering="geometricPrecision" stroke-miterlimit="1.45" shape-rendering="geometricPrecision" transform="matrix(1,0,0,1,-382,-261)" stroke-linecap="butt">
      <rect fill="none" x="447.5661" width="100" height="20.0648" y="543.5" clip-path="url(#clipPath2)"/>
    </g>
    <g fill="silver" text-rendering="geometricPrecision" shape-rendering="geometricPrecision" transform="matrix(1,0,0,1,-382,-261)" stroke="silver">
      <rect x="447.5661" width="100" height="20.0648" y="390.3953" clip-path="url(#clipPath2)" stroke="none"/>
    </g>
    <g text-rendering="geometricPrecision" stroke-miterlimit="1.45" shape-rendering="geometricPrecision" transform="matrix(1,0,0,1,-382,-261)" stroke-linecap="butt">
      <rect fill="none" x="447.5661" width="100" height="20.0648" y="390.3953" clip-path="url(#clipPath2)"/>
    </g>
    <g fill="silver" text-rendering="geometricPrecision" shape-rendering="geometricPrecision" transform="matrix(1,0,0,1,-382,-261)" stroke="silver">
      <rect x="447.5661" width="100" height="20.0648" y="370.3305" clip-path="url(#clipPath2)" stroke="none"/>
    </g>
    <g text-rendering="geometricPrecision" stroke-miterlimit="1.45" shape-rendering="geometricPrecision" transform="matrix(1,0,0,1,-382,-261)" stroke-linecap="butt">
      <rect fill="none" x="447.5661" width="100" height="20.0648" y="370.3305" clip-path="url(#clipPath2)"/>
    </g>
    <g fill="silver" text-rendering="geometricPrecision" shape-rendering="geometricPrecision" transform="matrix(1,0,0,1,-382,-261)" stroke="silver">
      <rect x="447.5661" width="100" height="20.0648" y="350.2657" clip-path="url(#clipPath2)" stroke="none"/>
    </g>
    <g text-rendering="geometricPrecision" stroke-miterlimit="1.45" shape-rendering="geometricPrecision" transform="matrix(1,0,0,1,-382,-261)" stroke-linecap="butt">
      <rect fill="none" x="447.5661" width="100" height="20.0648" y="350.2657" clip-path="url(#clipPath2)"/>
    </g>
    <g fill="silver" text-rendering="geometricPrecision" shape-rendering="geometricPrecision" transform="matrix(1,0,0,1,-382,-261)" stroke="silver">
      <rect x="681.5258" width="100" height="20.0648" y="543.5" clip-path="url(#clipPath2)" stroke="none"/>
    </g>
    <g text-rendering="geometricPrecision" stroke-miterlimit="1.45" shape-rendering="geometricPrecision" transform="matrix(1,0,0,1,-382,-261)" stroke-linecap="butt">
      <rect fill="none" x="681.5258" width="100" height="20.0648" y="543.5" clip-path="url(#clipPath2)"/>
    </g>
    <g fill="silver" text-rendering="geometricPrecision" shape-rendering="geometricPrecision" transform="matrix(1,0,0,1,-382,-261)" stroke="silver">
      <rect x="681.5258" width="100" height="20.0648" y="523.4352" clip-path="url(#clipPath2)" stroke="none"/>
    </g>
    <g text-rendering="geometricPrecision" stroke-miterlimit="1.45" shape-rendering="geometricPrecision" transform="matrix(1,0,0,1,-382,-261)" stroke-linecap="butt">
      <rect fill="none" x="681.5258" width="100" height="20.0648" y="523.4352" clip-path="url(#clipPath2)"/>
    </g>
    <g fill="silver" text-rendering="geometricPrecision" shape-rendering="geometricPrecision" transform="matrix(1,0,0,1,-382,-261)" stroke="silver">
      <rect x="681.5258" width="100" height="20.0648" y="503.3705" clip-path="url(#clipPath2)" stroke="none"/>
    </g>
    <g text-rendering="geometricPrecision" stroke-miterlimit="1.45" shape-rendering="geometricPrecision" transform="matrix(1,0,0,1,-382,-261)" stroke-linecap="butt">
      <rect fill="none" x="681.5258" width="100" height="20.0648" y="503.3705" clip-path="url(#clipPath2)"/>
    </g>
    <g fill="silver" text-rendering="geometricPrecision" shape-rendering="geometricPrecision" transform="matrix(1,0,0,1,-382,-261)" stroke="silver">
      <rect x="681.5258" width="100" height="20.0648" y="463.2409" clip-path="url(#clipPath2)" stroke="none"/>
    </g>
    <g text-rendering="geometricPrecision" stroke-miterlimit="1.45" shape-rendering="geometricPrecision" transform="matrix(1,0,0,1,-382,-261)" stroke-linecap="butt">
      <rect fill="none" x="681.5258" width="100" height="20.0648" y="463.2409" clip-path="url(#clipPath2)"/>
      <path fill="none" d="M547.5662 400.4276 L566.6733 400.4276 L659.5273 553.5324 L673.5258 553.5324" clip-path="url(#clipPath2)"/>
      <path d="M681.5258 553.5324 L669.5258 548.5324 L672.5258 553.5324 L669.5258 558.5324 Z" clip-path="url(#clipPath2)" stroke="none"/>
      <path fill="none" d="M547.5662 380.3629 L566.6733 380.3629 L661.2156 533.4676 L673.5258 533.4676" clip-path="url(#clipPath2)"/>
      <path d="M681.5258 533.4676 L669.5258 528.4676 L672.5258 533.4676 L669.5258 538.4676 Z" clip-path="url(#clipPath2)" stroke="none"/>
      <path fill="none" d="M547.5662 360.2981 L566.6733 360.2981 L661.2156 513.4028 L673.5258 513.4028" clip-path="url(#clipPath2)"/>
      <path d="M681.5258 513.4028 L669.5258 508.4028 L672.5258 513.4028 L669.5258 518.4028 Z" clip-path="url(#clipPath2)" stroke="none"/>
      <path fill="none" d="M547.5662 553.5324 L568.3616 553.5324 L661.2156 473.2733 L673.5258 473.2733" clip-path="url(#clipPath2)"/>
      <path d="M681.5258 473.2733 L669.5258 468.2733 L672.5258 473.2733 L669.5258 478.2733 Z" clip-path="url(#clipPath2)" stroke="none"/>
    </g>
  </g>
</svg>
