<svg xmlns="http://www.w3.org/2000/svg" color-interpolation="auto" stroke="#000" stroke-linecap="square" width="415" stroke-miterlimit="10" height="328" font-family="'Dialog'" font-size="12"><defs><clipPath id="a"><path d="M382 261h415v328H382V261z"/></clipPath></defs><rect x="397.566" y="298.5" clip-path="url(#a)" width="100" rx="4" ry="4" height="245" fill="#fff" text-rendering="geometricPrecision" shape-rendering="geometricPrecision" transform="translate(-382 -261)" stroke="none"/><g text-rendering="geometricPrecision" stroke-miterlimit="1.45" shape-rendering="geometricPrecision" transform="translate(-382 -261)" stroke-linecap="butt"><rect x="397.566" y="298.5" clip-path="url(#a)" fill="none" width="100" rx="4" ry="4" height="245"/><text x="403.152" y="289.969" clip-path="url(#a)" font-family="sans-serif" stroke="none">Virtual Memory</text><rect x="681.526" y="442.375" clip-path="url(#a)" fill="none" width="100" rx="4" ry="4" height="131.125"/><text x="683.151" y="433.843" clip-path="url(#a)" font-family="sans-serif" stroke="none">Physical Memory</text></g><rect x="422.566" y="313.5" clip-path="url(#a)" width="100" rx="4" ry="4" height="245" fill="#fff" text-rendering="geometricPrecision" shape-rendering="geometricPrecision" transform="translate(-382 -261)" stroke="none"/><rect x="422.566" y="313.5" clip-path="url(#a)" fill="none" width="100" rx="4" ry="4" height="245" text-rendering="geometricPrecision" stroke-miterlimit="1.45" shape-rendering="geometricPrecision" transform="translate(-382 -261)" stroke-linecap="butt"/><rect x="447.566" y="328.5" clip-path="url(#a)" width="100" rx="4" ry="4" height="245" fill="#fff" text-rendering="geometricPrecision" shape-rendering="geometricPrecision" transform="translate(-382 -261)" stroke="none"/><rect x="447.566" y="328.5" clip-path="url(#a)" fill="none" width="100" rx="4" ry="4" height="245" text-rendering="geometricPrecision" stroke-miterlimit="1.45" shape-rendering="geometricPrecision" transform="translate(-382 -261)" stroke-linecap="butt"/><path clip-path="url(#a)" d="M447.566 543.5h100v20.065h-100z" transform="translate(-382 -261)" fill="silver" text-rendering="geometricPrecision" shape-rendering="geometricPrecision" stroke="none"/><path fill="none" clip-path="url(#a)" d="M447.566 543.5h100v20.065h-100z" transform="translate(-382 -261)" text-rendering="geometricPrecision" stroke-miterlimit="1.45" shape-rendering="geometricPrecision" stroke-linecap="butt"/><path clip-path="url(#a)" d="M447.566 390.395h100v20.065h-100z" transform="translate(-382 -261)" fill="silver" text-rendering="geometricPrecision" shape-rendering="geometricPrecision" stroke="none"/><path fill="none" clip-path="url(#a)" d="M447.566 390.395h100v20.065h-100z" transform="translate(-382 -261)" text-rendering="geometricPrecision" stroke-miterlimit="1.45" shape-rendering="geometricPrecision" stroke-linecap="butt"/><path clip-path="url(#a)" d="M447.566 370.33h100v20.065h-100z" transform="translate(-382 -261)" fill="silver" text-rendering="geometricPrecision" shape-rendering="geometricPrecision" stroke="none"/><path fill="none" clip-path="url(#a)" d="M447.566 370.33h100v20.065h-100z" transform="translate(-382 -261)" text-rendering="geometricPrecision" stroke-miterlimit="1.45" shape-rendering="geometricPrecision" stroke-linecap="butt"/><path clip-path="url(#a)" d="M447.566 350.266h100v20.065h-100z" transform="translate(-382 -261)" fill="silver" text-rendering="geometricPrecision" shape-rendering="geometricPrecision" stroke="none"/><path fill="none" clip-path="url(#a)" d="M447.566 350.266h100v20.065h-100z" transform="translate(-382 -261)" text-rendering="geometricPrecision" stroke-miterlimit="1.45" shape-rendering="geometricPrecision" stroke-linecap="butt"/><path clip-path="url(#a)" d="M681.526 543.5h100v20.065h-100z" transform="translate(-382 -261)" fill="silver" text-rendering="geometricPrecision" shape-rendering="geometricPrecision" stroke="none"/><path fill="none" clip-path="url(#a)" d="M681.526 543.5h100v20.065h-100z" transform="translate(-382 -261)" text-rendering="geometricPrecision" stroke-miterlimit="1.45" shape-rendering="geometricPrecision" stroke-linecap="butt"/><path clip-path="url(#a)" d="M681.526 523.435h100V543.5h-100z" transform="translate(-382 -261)" fill="silver" text-rendering="geometricPrecision" shape-rendering="geometricPrecision" stroke="none"/><path fill="none" clip-path="url(#a)" d="M681.526 523.435h100V543.5h-100z" transform="translate(-382 -261)" text-rendering="geometricPrecision" stroke-miterlimit="1.45" shape-rendering="geometricPrecision" stroke-linecap="butt"/><path clip-path="url(#a)" d="M681.526 503.37h100v20.065h-100z" transform="translate(-382 -261)" fill="silver" text-rendering="geometricPrecision" shape-rendering="geometricPrecision" stroke="none"/><path fill="none" clip-path="url(#a)" d="M681.526 503.37h100v20.065h-100z" transform="translate(-382 -261)" text-rendering="geometricPrecision" stroke-miterlimit="1.45" shape-rendering="geometricPrecision" stroke-linecap="butt"/><path clip-path="url(#a)" d="M681.526 463.241h100v20.065h-100z" transform="translate(-382 -261)" fill="silver" text-rendering="geometricPrecision" shape-rendering="geometricPrecision" stroke="none"/><g text-rendering="geometricPrecision" stroke-miterlimit="1.45" shape-rendering="geometricPrecision" stroke-linecap="butt"><path fill="none" clip-path="url(#a)" d="M681.526 463.241h100v20.065h-100zm-133.96-62.813h19.107l92.854 153.104h13.999" transform="translate(-382 -261)"/><path d="M681.526 553.532l-12-5 3 5-3 5z" clip-path="url(#a)" transform="translate(-382 -261)" stroke="none"/><path fill="none" d="M547.566 380.363h19.107l94.543 153.105h12.31" clip-path="url(#a)" transform="translate(-382 -261)"/><path d="M681.526 533.468l-12-5 3 5-3 5z" clip-path="url(#a)" transform="translate(-382 -261)" stroke="none"/><path fill="none" d="M547.566 360.298h19.107l94.543 153.105h12.31" clip-path="url(#a)" transform="translate(-382 -261)"/><path d="M681.526 513.403l-12-5 3 5-3 5z" clip-path="url(#a)" transform="translate(-382 -261)" stroke="none"/><path fill="none" d="M547.566 553.532h20.796l92.854-80.259h12.31" clip-path="url(#a)" transform="translate(-382 -261)"/><path d="M681.526 473.273l-12-5 3 5-3 5z" clip-path="url(#a)" transform="translate(-382 -261)" stroke="none"/></g></svg>